<?xml version="1.0" standalone="no"?>
<!DOCTYPE svg PUBLIC "-//W3C//DTD SVG 20010904//EN"
 "http://www.w3.org/TR/2001/REC-SVG-20010904/DTD/svg10.dtd">
<svg version="1.0" xmlns="http://www.w3.org/2000/svg"
 width="32.000000pt" height="32.000000pt" viewBox="0 0 32.000000 32.000000"
 preserveAspectRatio="xMidYMid meet">
<metadata>
Created by potrace 1.15, written by Peter Selinger 2001-2017
</metadata>
<g transform="translate(0.000000,32.000000) scale(0.100000,-0.100000)" stroke="none">
<path d="M0 160 l0 -160 160 0 160 0 0 160 0 160 -160 0 -160 0 0 -160z m180
106 c0 -8 -7 -16 -15 -20 -11 -4 -15 -22 -15 -71 0 -62 1 -65 24 -65 15 0 32
11 44 27 27 37 47 20 38 -31 l-7 -36 -94 0 c-78 0 -95 3 -95 15 0 8 7 15 15
15 12 0 15 14 15 70 0 54 -4 72 -15 76 -8 4 -15 12 -15 20 0 10 15 14 60 14
45 0 60 -4 60 -14z"/>
</g>
</svg>
